<svg width="325" height="103" viewBox="0 0 325 103" fill="none" xmlns="http://www.w3.org/2000/svg">
<path fill-rule="evenodd" clip-rule="evenodd" d="M86.1911 15.0204C88.7167 14.869 92.6158 15.5035 95.6568 17.6419C98.2728 19.4816 101.008 22.9263 101.008 30.2998C101.008 35.2131 97.7029 39.1077 91.8391 42.3123C86.1307 45.432 79.905 46.7508 78.5784 47.0024C78.5209 47.0133 78.4287 47.0287 78.2582 47.053L69.2391 48.3414C66.5895 48.72 63.6396 49.4106 60.7475 50.7992C57.1322 52.535 53.2396 54.8927 49.9536 57.8653C49.9086 57.9061 49.8362 57.8811 49.8261 57.8212C49.4431 55.5554 49.2706 53.4127 49.2706 51.5055C49.2706 45.377 51.1708 36.0174 56.6515 28.4055C61.8567 21.176 70.598 15.0339 85.7422 15.0339C85.892 15.0339 86.0416 15.0294 86.1911 15.0204ZM58.3231 76.6783C58.4011 76.78 58.4831 76.8834 58.5692 76.9884C58.9875 77.4666 59.4224 77.9351 59.8742 78.3925C61.8645 80.3143 65.0873 82.6425 70.1467 85.2281C74.3037 86.9051 79.4237 87.9771 85.7422 87.9771C100.726 87.9771 117.743 78.6603 132.125 67.8811C144.936 58.2787 154.394 48.5025 156.814 46.0015L156.814 46.0014L156.816 45.9994C157.05 45.7577 157.218 45.5842 157.316 45.4857C157.312 45.4902 157.313 45.4893 157.321 45.4806C157.338 45.4633 157.384 45.4154 157.478 45.3171C157.607 45.1811 157.752 45.0281 157.962 44.8071C158.364 44.384 158.906 43.8157 159.575 43.1278C160.913 41.7518 162.751 39.9049 165.019 37.7499C169.547 33.4482 175.824 27.8873 183.311 22.373C193.026 15.2178 205.271 7.7715 218.7 3.53849C224.468 1.33818 231.154 0.0573105 238.845 0.0342916C243.902 -0.221208 251.253 0.910389 257.597 5.37178C264.467 10.2024 269.32 18.3675 269.32 30.2978C269.32 43.4758 259.951 51.3145 252.345 55.4712C244.584 59.7127 236.544 61.3833 234.687 61.7355C234.308 61.8074 233.963 61.8596 233.694 61.8981L224.676 63.1864C222.971 63.4299 221.628 63.8018 220.555 64.317C217.829 65.6261 215.258 67.2429 213.333 68.9841C211.347 70.7807 210.576 72.2245 210.376 73.1278C210.258 73.6605 210.136 74.712 211.64 76.6717C211.718 76.7733 211.8 76.8767 211.886 76.9817C212.304 77.4599 212.739 77.9283 213.191 78.3857C215.181 80.3072 218.403 82.6352 223.462 85.2205C227.618 86.8973 232.738 87.9691 239.056 87.9691C254.105 87.9691 271.415 78.7681 286.07 68.1595C299.743 58.2613 309.783 48.1279 311.507 46.3877C311.588 46.3055 311.651 46.2421 311.695 46.1983C314.624 43.2693 319.373 43.2693 322.302 46.1982C325.23 49.1272 325.23 53.8759 322.302 56.8049C322.259 56.8471 322.2 56.9069 322.124 56.9836L322.104 57.0042C320.276 58.849 309.536 69.6898 294.866 80.31C279.842 91.1856 259.181 102.969 239.056 102.969C230.84 102.969 223.668 101.538 217.472 98.977C193.675 89.1389 187.588 64.5044 187.588 51.5016C187.588 46.5767 181.611 42.8525 177.977 46.1761C173.268 50.4817 169.991 53.9262 168.575 55.4133C168.269 55.7348 168.05 55.9647 167.923 56.0923L167.923 56.0925L167.922 56.0935C167.917 56.0984 167.901 56.1143 167.87 56.1461C167.831 56.1866 167.78 56.2389 167.714 56.307L167.569 56.4569C167.463 56.5667 167.337 56.6977 167.201 56.838C166.779 57.2737 166.212 57.8558 165.514 58.5607C164.118 59.9703 162.202 61.8648 159.85 64.0772C155.156 68.4935 148.69 74.211 141.121 79.8839C126.358 90.9492 105.936 102.977 85.7422 102.977C77.5259 102.977 70.3536 101.546 64.1573 98.9846C40.3582 89.1458 34.2706 64.5094 34.2706 51.5055C34.2706 42.9767 36.7676 30.3505 44.4784 19.6409C45.8027 17.8017 44.5599 15.0339 42.2936 15.0339H7.5C3.35786 15.0339 0 11.676 0 7.53385C0 3.39172 3.35786 0.0338553 7.5 0.0338553H85.5374C90.5948 -0.220411 97.943 0.912174 104.285 5.37202C111.155 10.2029 116.008 18.3686 116.008 30.2998C116.008 43.4787 106.639 51.3179 99.0326 55.4749C91.2709 59.7168 83.2304 61.3875 81.3732 61.7397C80.9943 61.8116 80.6487 61.8638 80.3795 61.9023L71.3604 63.1907C69.6558 63.4342 68.3129 63.8062 67.2399 64.3214C64.5132 65.6305 61.9416 67.2475 60.0166 68.989C58.0303 70.7859 57.259 72.2299 57.0589 73.1335C56.9409 73.6665 56.8188 74.7183 58.3231 76.6783ZM223.661 17.7029C217.434 20.1685 213.072 24.0929 209.968 28.4041C204.488 36.0152 202.588 45.3738 202.588 51.5016C202.588 53.4087 202.761 55.5512 203.144 57.8168C203.154 57.8761 203.225 57.9009 203.27 57.8605C206.555 54.8881 210.448 52.5306 214.063 50.7949C216.955 49.4062 219.905 48.7156 222.554 48.3371L231.572 47.0488C231.743 47.0245 231.835 47.0091 231.892 46.9982C233.219 46.7466 239.444 45.428 245.152 42.3086C251.015 39.1043 254.32 35.2103 254.32 30.2978C254.32 22.9252 251.585 19.4811 248.969 17.6417C246.404 15.8382 243.229 15.1046 240.783 15.01C240.584 15.0258 240.383 15.0339 240.18 15.0339C234.686 15.0339 229.134 16.0174 223.661 17.7029Z" fill="url(#paint0_linear_304_41)"/>
<defs>
<linearGradient id="paint0_linear_304_41" x1="-2.05819e-06" y1="102.977" x2="219.508" y2="-96.6754" gradientUnits="userSpaceOnUse">
<stop stop-color="#4080E0"/>
<stop offset="1" stop-color="#32D7B9"/>
</linearGradient>
</defs>
</svg>
