<svg width="130" height="230" viewBox="0 0 130 230" fill="none" xmlns="http://www.w3.org/2000/svg">
<rect width="130" height="230" rx="13" fill="#202020"/>
<rect x="4" y="4" width="122" height="222" rx="10" fill="white"/>
<rect x="38" width="54" height="13" rx="4" fill="#202020"/>
<rect x="50" y="4" width="31" height="4" rx="2" fill="#D9D9D9"/>
<path d="M39.4052 95.5687C39.9678 92.1933 42.8881 89.7195 46.31 89.7195L84.3101 89.7195C87.7458 89.7195 90.6737 92.2129 91.2207 95.6048L99.0079 143.885C99.6943 148.141 96.408 152 92.0972 152H38.2632C33.9377 152 30.6473 148.116 31.3585 143.849L39.4052 95.5687Z" fill="#E2E2E2"/>
<path d="M61.0043 79.5H69.3124C73.5869 79.5 77.052 82.9651 77.052 87.2396V90.0678C77.052 94.3339 72.6636 97.1895 68.7632 95.4614C66.4676 94.4444 63.8492 94.4444 61.5536 95.4614C57.6532 97.1895 53.2647 94.3339 53.2647 90.0678V87.2396C53.2647 82.9651 56.7298 79.5 61.0043 79.5Z" stroke="#5A5A5A" stroke-width="3"/>
<path fill-rule="evenodd" clip-rule="evenodd" d="M55.7202 118.017C56.0242 117.999 56.4948 118.076 56.8592 118.332C57.167 118.549 57.4989 118.958 57.4989 119.857C57.4989 120.401 57.1605 120.844 56.5106 121.229C55.8684 121.61 55.1287 121.797 54.8342 121.86C54.7743 121.873 54.7076 121.883 54.6152 121.897C53.6741 122.031 52.4534 122.237 51.4603 122.993V122.993C51.3582 123.071 51.2068 123.013 51.1955 122.885C51.1836 122.751 51.1779 122.622 51.1779 122.501C51.1779 121.748 51.4123 120.595 52.0859 119.659C52.7229 118.774 53.7933 118.019 55.6604 118.019C55.6804 118.019 55.7003 118.018 55.7202 118.017ZM52.1433 125.303C52.1504 125.354 52.1874 125.472 52.3286 125.644C52.3807 125.703 52.4348 125.761 52.491 125.817C52.7235 126.04 53.1083 126.322 53.7429 126.647C54.2522 126.852 54.8814 126.984 55.6604 126.984C57.506 126.984 59.6131 125.834 61.4046 124.491C62.9974 123.297 64.1731 122.082 64.4755 121.77L64.4755 121.769C64.5049 121.739 64.5261 121.717 64.5385 121.705C64.5381 121.705 64.5379 121.705 64.5379 121.705C64.5379 121.705 64.5429 121.7 64.5575 121.685L64.6179 121.621C64.6681 121.569 64.7359 121.497 64.8195 121.411C64.9868 121.239 65.2166 121.009 65.5001 120.739C66.066 120.201 66.8507 119.506 67.787 118.817C68.9998 117.923 70.5324 116.99 72.2163 116.459C72.942 116.183 73.7824 116.022 74.7478 116.019C75.3892 115.987 76.3201 116.13 77.125 116.696C77.9998 117.311 78.6141 118.35 78.6141 119.857C78.6141 121.433 77.5571 122.409 76.6452 122.949C75.7256 123.494 74.737 123.737 74.3655 123.816C74.2358 123.843 74.1132 123.862 74.0136 123.876C73.0545 124.013 72.3218 124.177 71.7875 124.584C71.2881 124.964 71.2473 125.216 71.2592 125.302C71.2663 125.353 71.3032 125.471 71.4445 125.643C71.4965 125.702 71.5506 125.76 71.6068 125.817C71.8393 126.039 72.224 126.321 72.8585 126.646C73.3678 126.851 73.997 126.983 74.7758 126.983C76.6302 126.983 78.774 125.847 80.5996 124.525C82.3001 123.294 83.5488 122.034 83.7634 121.817L83.7868 121.794C84.1773 121.403 84.8105 121.403 85.201 121.794C85.5915 122.184 85.5915 122.817 85.201 123.208L85.1763 123.233C84.948 123.463 83.6059 124.818 81.7724 126.145C79.8976 127.502 77.307 128.983 74.7758 128.983C73.7439 128.983 72.8411 128.803 72.06 128.48C69.0578 127.239 68.2939 124.134 68.2939 122.501V122.501C68.2939 121.932 67.6066 121.516 67.1873 121.9C66.6117 122.428 66.2104 122.849 66.035 123.033C65.9965 123.074 65.9689 123.103 65.9527 123.119L65.9468 123.125L65.9275 123.145L65.8634 123.211C65.8107 123.266 65.7399 123.338 65.6526 123.427C65.4781 123.603 65.2387 123.839 64.9448 124.116C64.3583 124.668 63.5502 125.382 62.6041 126.091C60.7617 127.472 58.2008 128.984 55.6604 128.984C54.6283 128.984 53.7255 128.804 52.9443 128.481C49.9419 127.24 49.1779 124.135 49.1779 122.501C49.1779 121.427 49.4918 119.839 50.4629 118.49V118.49C50.5998 118.3 50.4701 118.019 50.2358 118.019H45.905C45.3527 118.019 44.905 117.571 44.905 117.019C44.905 116.466 45.3527 116.019 45.905 116.019H55.6332C56.2747 115.987 57.2052 116.13 58.0097 116.696C58.8846 117.311 59.4989 118.35 59.4989 119.857C59.4989 121.433 58.4419 122.41 57.5299 122.95C56.6102 123.495 55.6215 123.737 55.25 123.816C55.1203 123.844 54.9977 123.862 54.8981 123.876C53.9389 124.013 53.2061 124.177 52.6717 124.584C52.1722 124.964 52.1314 125.216 52.1433 125.303ZM72.8779 118.348C72.1143 118.651 71.5812 119.132 71.2018 119.659C70.5282 120.594 70.2939 121.747 70.2939 122.501C70.2939 122.622 70.2995 122.751 70.3114 122.885C70.3227 123.013 70.4741 123.07 70.5761 122.992V122.992C71.5691 122.236 72.7897 122.03 73.7308 121.896C73.8231 121.883 73.8898 121.872 73.9497 121.86C74.2442 121.797 74.9838 121.609 75.6259 121.229C76.2758 120.844 76.6141 120.4 76.6141 119.857C76.6141 118.957 76.2822 118.548 75.9745 118.332C75.6682 118.117 75.2869 118.028 74.9926 118.016C74.9673 118.018 74.9417 118.019 74.916 118.019C74.2389 118.019 73.554 118.14 72.8779 118.348Z" fill="url(#paint0_linear_311_49)"/>
<rect x="20" y="186" width="90" height="20" rx="8" fill="#53E8DF"/>
<path d="M46.1357 198V190.549H48.9092C49.6514 190.549 50.2145 190.725 50.5986 191.076C50.9827 191.421 51.1748 191.89 51.1748 192.482C51.1748 192.867 51.0771 193.195 50.8818 193.469C50.693 193.742 50.4489 193.947 50.1494 194.084C50.5075 194.195 50.8135 194.413 51.0674 194.738C51.3213 195.057 51.4482 195.441 51.4482 195.891C51.4482 196.477 51.2562 196.975 50.8721 197.385C50.488 197.795 49.9541 198 49.2705 198H46.1357ZM47.083 197.189H49.0654C49.4626 197.189 49.7946 197.076 50.0615 196.848C50.335 196.62 50.4717 196.304 50.4717 195.9C50.4717 195.516 50.3415 195.197 50.0811 194.943C49.8206 194.689 49.4691 194.562 49.0264 194.562H47.083V197.189ZM47.083 193.771H48.7725C49.1826 193.771 49.5212 193.671 49.7881 193.469C50.0615 193.26 50.1982 192.954 50.1982 192.551C50.1982 192.193 50.0876 191.906 49.8662 191.691C49.6449 191.47 49.2933 191.359 48.8115 191.359H47.083V193.771ZM52.6006 196.086V192.619H53.5186V195.93C53.5186 196.913 53.8734 197.404 54.583 197.404C55.0127 197.404 55.3447 197.232 55.5791 196.887C55.8135 196.542 55.9307 196.135 55.9307 195.666V192.619H56.8389V198H55.96V197.219H55.9502C55.8786 197.434 55.7126 197.648 55.4521 197.863C55.1917 198.072 54.8337 198.176 54.3779 198.176C53.8701 198.176 53.4469 198.007 53.1084 197.668C52.7699 197.323 52.6006 196.796 52.6006 196.086ZM57.6592 192.619H58.6943L59.7393 195.637C59.9281 196.184 60.068 196.623 60.1592 196.955H60.1982C60.387 196.33 60.5205 195.891 60.5986 195.637L61.585 192.619H62.6104L60.3252 198.83C60.1299 199.37 59.889 199.748 59.6025 199.963C59.3226 200.184 58.9775 200.295 58.5674 200.295H58.2451V199.533H58.4209C58.6878 199.533 58.9092 199.465 59.085 199.328C59.2607 199.191 59.4105 198.947 59.5342 198.596L59.7295 198L57.6592 192.619ZM65.8623 198V192.619H66.7607V193.459H66.7705C66.8551 193.218 67.0407 192.99 67.3271 192.775C67.6201 192.554 67.9782 192.443 68.4014 192.443C68.9157 192.443 69.3324 192.603 69.6514 192.922C69.9769 193.241 70.1396 193.775 70.1396 194.523V198H69.2119V194.67C69.2119 193.7 68.8734 193.215 68.1963 193.215C67.8122 193.215 67.4801 193.374 67.2002 193.693C66.9268 194.006 66.79 194.383 66.79 194.826V198H65.8623ZM72.1514 195.314C72.1514 195.972 72.2979 196.486 72.5908 196.857C72.8838 197.222 73.2419 197.404 73.665 197.404C74.0817 197.404 74.4365 197.222 74.7295 196.857C75.0225 196.486 75.1689 195.972 75.1689 195.314C75.1689 194.644 75.0225 194.126 74.7295 193.762C74.4365 193.397 74.0817 193.215 73.665 193.215C73.2484 193.215 72.8903 193.397 72.5908 193.762C72.2979 194.12 72.1514 194.637 72.1514 195.314ZM71.2139 195.314C71.2139 194.501 71.4255 193.82 71.8486 193.273C72.2718 192.72 72.8773 192.443 73.665 192.443C74.4398 192.443 75.0387 192.72 75.4619 193.273C75.8916 193.82 76.1064 194.501 76.1064 195.314C76.1064 195.653 76.0609 195.982 75.9697 196.301C75.8851 196.62 75.7516 196.926 75.5693 197.219C75.3936 197.505 75.1396 197.736 74.8076 197.912C74.4756 198.088 74.0947 198.176 73.665 198.176C73.2354 198.176 72.8545 198.091 72.5225 197.922C72.1969 197.746 71.9398 197.515 71.751 197.229C71.5687 196.942 71.432 196.639 71.3408 196.32C71.2562 195.995 71.2139 195.66 71.2139 195.314ZM76.5752 192.619H77.5811L78.2939 195.734C78.3265 195.878 78.3721 196.102 78.4307 196.408C78.4893 196.714 78.5381 196.958 78.5771 197.141H78.6162C78.766 196.451 78.8669 195.982 78.9189 195.734L79.6514 192.619H80.6865L81.4287 195.773C81.4548 195.891 81.5003 196.102 81.5654 196.408C81.637 196.708 81.6924 196.952 81.7314 197.141H81.7705C81.79 197.036 81.8324 196.822 81.8975 196.496C81.9626 196.164 82.0146 195.91 82.0537 195.734L82.7568 192.619H83.7627L82.2881 198H81.2041L80.4717 194.973C80.3219 194.276 80.2275 193.817 80.1885 193.596H80.1494C80.0387 194.162 79.9443 194.621 79.8662 194.973L79.1436 198H78.0498L76.5752 192.619Z" fill="white"/>
<path d="M36.5332 172.389V171.139H42.4414V172.389H40.2148V179H38.7598V172.389H36.5332ZM43.8867 176.129C43.8867 176.78 44.0104 177.252 44.2578 177.545C44.5117 177.838 44.8014 177.984 45.127 177.984C45.446 177.984 45.7324 177.838 45.9863 177.545C46.2467 177.245 46.377 176.773 46.377 176.129C46.377 175.478 46.25 175.006 45.9961 174.713C45.7422 174.413 45.4525 174.264 45.127 174.264C44.8014 174.264 44.5117 174.41 44.2578 174.703C44.0104 174.996 43.8867 175.471 43.8867 176.129ZM42.4512 176.129C42.4512 175.276 42.6758 174.553 43.125 173.961C43.5742 173.368 44.2415 173.072 45.127 173.072C45.7259 173.072 46.2337 173.222 46.6504 173.521C47.0671 173.821 47.3633 174.195 47.5391 174.645C47.7148 175.087 47.8027 175.582 47.8027 176.129C47.8027 176.389 47.7799 176.65 47.7344 176.91C47.6888 177.164 47.6009 177.431 47.4707 177.711C47.347 177.991 47.1875 178.238 46.9922 178.453C46.8034 178.661 46.5462 178.834 46.2207 178.971C45.9017 179.107 45.5371 179.176 45.127 179.176C44.7233 179.176 44.362 179.111 44.043 178.98C43.724 178.85 43.4668 178.684 43.2715 178.482C43.0762 178.274 42.9134 178.033 42.7832 177.76C42.6595 177.48 42.5716 177.21 42.5195 176.949C42.474 176.682 42.4512 176.409 42.4512 176.129ZM48.291 174.43V173.248H49.1504V171.578H50.5371V173.248H51.7871V174.43H50.5371V177.105C50.5371 177.574 50.7422 177.809 51.1523 177.809H51.7969V179H50.9766C50.4167 179 49.9707 178.857 49.6387 178.57C49.3132 178.284 49.1504 177.825 49.1504 177.193V174.43H48.291ZM53.8281 177.34C53.8281 177.529 53.8997 177.688 54.043 177.818C54.1927 177.949 54.3913 178.014 54.6387 178.014C55.0098 178.014 55.3255 177.89 55.5859 177.643C55.8464 177.395 55.9766 177.07 55.9766 176.666V176.217C55.7161 176.282 55.3841 176.344 54.9805 176.402C54.2122 176.526 53.8281 176.839 53.8281 177.34ZM52.4023 177.457C52.4023 176.93 52.6009 176.497 52.998 176.158C53.4017 175.82 54.0007 175.592 54.7949 175.475C55.4199 175.37 55.8138 175.296 55.9766 175.25V174.947C55.9766 174.693 55.8854 174.501 55.7031 174.371C55.5208 174.234 55.2799 174.166 54.9805 174.166C54.3815 174.166 53.8542 174.413 53.3984 174.908L52.5586 174.186C53.1836 173.443 53.9876 173.072 54.9707 173.072C55.8366 173.072 56.4518 173.281 56.8164 173.697C57.1875 174.107 57.373 174.693 57.373 175.455V179H56.0156V178.346C55.8919 178.574 55.6868 178.769 55.4004 178.932C55.1204 179.094 54.7982 179.176 54.4336 179.176C53.8086 179.176 53.3138 179.016 52.9492 178.697C52.5846 178.378 52.4023 177.965 52.4023 177.457ZM58.6719 179V170.885H60.0684V179H58.6719ZM61.8066 178.385V176.744H63.5938V178.385H61.8066ZM61.8066 174.156V172.516H63.5938V174.156H61.8066ZM67.4609 177.291L68.5156 176.803C68.9388 177.467 69.5117 177.799 70.2344 177.799C70.5339 177.799 70.791 177.711 71.0059 177.535C71.2207 177.359 71.3281 177.115 71.3281 176.803C71.3281 176.633 71.2923 176.49 71.2207 176.373C71.1556 176.249 71.0449 176.139 70.8887 176.041C70.7324 175.943 70.5762 175.862 70.4199 175.797C70.2637 175.725 70.0391 175.628 69.7461 175.504C69.4596 175.38 69.2057 175.263 68.9844 175.152C68.1445 174.723 67.7246 174.085 67.7246 173.238C67.7246 172.809 67.8743 172.395 68.1738 171.998C68.4733 171.601 68.9258 171.344 69.5312 171.227V170.357H70.8496V171.236C71.2337 171.275 71.6016 171.445 71.9531 171.744C72.3047 172.044 72.5488 172.353 72.6855 172.672L71.6016 173.189C71.2305 172.63 70.7585 172.35 70.1855 172.35C69.8796 172.35 69.6322 172.434 69.4434 172.604C69.2546 172.773 69.1602 172.988 69.1602 173.248C69.1602 173.372 69.1829 173.486 69.2285 173.59C69.2806 173.688 69.3392 173.772 69.4043 173.844C69.4694 173.909 69.5736 173.984 69.7168 174.068C69.8665 174.146 70 174.212 70.1172 174.264C70.2344 174.309 70.4134 174.381 70.6543 174.479C70.8952 174.576 71.1003 174.661 71.2695 174.732C72.2786 175.175 72.7832 175.823 72.7832 176.676C72.7832 177.268 72.6074 177.766 72.2559 178.17C71.9043 178.567 71.4355 178.824 70.8496 178.941V179.752H69.5312V178.912C69.1276 178.867 68.724 178.688 68.3203 178.375C67.9232 178.056 67.6367 177.695 67.4609 177.291ZM76.4941 173.6V172.506H76.8652C77.4512 172.506 77.8678 172.389 78.1152 172.154C78.3691 171.92 78.4961 171.624 78.4961 171.266V171.08H79.7656V179.078H78.2715V173.6H76.4941ZM83.5254 175.074C83.5254 177.014 83.8997 177.984 84.6484 177.984C85.3841 177.984 85.752 177.014 85.752 175.074C85.752 173.134 85.3809 172.164 84.6387 172.164C83.8965 172.164 83.5254 173.134 83.5254 175.074ZM82.0215 175.074C82.0215 174.436 82.0768 173.87 82.1875 173.375C82.2982 172.88 82.4382 172.486 82.6074 172.193C82.7832 171.894 82.9883 171.65 83.2227 171.461C83.4635 171.266 83.6979 171.135 83.9258 171.07C84.1536 170.999 84.3913 170.963 84.6387 170.963C85.485 170.963 86.1328 171.327 86.582 172.057C87.0378 172.786 87.2656 173.792 87.2656 175.074C87.2656 176.344 87.0378 177.346 86.582 178.082C86.1328 178.818 85.4883 179.186 84.6484 179.186C84.4141 179.186 84.1862 179.153 83.9648 179.088C83.7435 179.023 83.5124 178.899 83.2715 178.717C83.0306 178.528 82.819 178.287 82.6367 177.994C82.4609 177.701 82.3145 177.304 82.1973 176.803C82.0801 176.301 82.0215 175.725 82.0215 175.074ZM89.4824 175.074C89.4824 177.014 89.8568 177.984 90.6055 177.984C91.3411 177.984 91.709 177.014 91.709 175.074C91.709 173.134 91.3379 172.164 90.5957 172.164C89.8535 172.164 89.4824 173.134 89.4824 175.074ZM87.9785 175.074C87.9785 174.436 88.0339 173.87 88.1445 173.375C88.2552 172.88 88.3952 172.486 88.5645 172.193C88.7402 171.894 88.9453 171.65 89.1797 171.461C89.4206 171.266 89.6549 171.135 89.8828 171.07C90.1107 170.999 90.3483 170.963 90.5957 170.963C91.4421 170.963 92.0898 171.327 92.5391 172.057C92.9948 172.786 93.2227 173.792 93.2227 175.074C93.2227 176.344 92.9948 177.346 92.5391 178.082C92.0898 178.818 91.4453 179.186 90.6055 179.186C90.3711 179.186 90.1432 179.153 89.9219 179.088C89.7005 179.023 89.4694 178.899 89.2285 178.717C88.9876 178.528 88.776 178.287 88.5938 177.994C88.418 177.701 88.2715 177.304 88.1543 176.803C88.0371 176.301 87.9785 175.725 87.9785 175.074Z" fill="#8E8E8E"/>
<line x1="4" y1="163.5" x2="126" y2="163.5" stroke="#9F9F9F" stroke-dasharray="2 2"/>
<path d="M35.6504 62.3496L36.7832 61.9688C36.9655 62.2943 37.2292 62.5612 37.5742 62.7695C37.9193 62.9714 38.3001 63.0723 38.7168 63.0723C39.1465 63.0723 39.4915 62.9681 39.752 62.7598C40.0124 62.5514 40.1426 62.2812 40.1426 61.9492C40.1426 61.5977 40.0026 61.3242 39.7227 61.1289C39.4492 60.9336 39.0456 60.7448 38.5117 60.5625C37.75 60.3086 37.2357 60.1068 36.9688 59.957C36.2721 59.5599 35.9238 58.9837 35.9238 58.2285C35.9238 57.5905 36.1745 57.0762 36.6758 56.6855C37.1771 56.2949 37.8314 56.0996 38.6387 56.0996C39.3027 56.0996 39.8691 56.2559 40.3379 56.5684C40.8132 56.8743 41.1582 57.2682 41.373 57.75L40.2891 58.1113C39.8724 57.5059 39.319 57.2031 38.6289 57.2031C38.2057 57.2031 37.8704 57.2975 37.623 57.4863C37.3757 57.6751 37.252 57.9225 37.252 58.2285C37.252 58.3197 37.2617 58.4076 37.2812 58.4922C37.3008 58.5703 37.3398 58.6452 37.3984 58.7168C37.457 58.7884 37.5091 58.8503 37.5547 58.9023C37.6003 58.9544 37.6751 59.0098 37.7793 59.0684C37.8835 59.127 37.9648 59.1725 38.0234 59.2051C38.0885 59.2376 38.1927 59.2799 38.3359 59.332C38.4792 59.3841 38.5801 59.4199 38.6387 59.4395C38.7038 59.459 38.821 59.498 38.9902 59.5566C39.1595 59.6087 39.2734 59.6445 39.332 59.6641C39.6315 59.7617 39.8952 59.8659 40.123 59.9766C40.3509 60.0872 40.5723 60.2305 40.7871 60.4062C41.0085 60.5755 41.1777 60.7871 41.2949 61.041C41.4121 61.2949 41.4707 61.5814 41.4707 61.9004C41.4707 62.623 41.2103 63.1829 40.6895 63.5801C40.1751 63.9772 39.5078 64.1758 38.6875 64.1758C37.9779 64.1758 37.3561 64.013 36.8223 63.6875C36.2884 63.3555 35.8978 62.9095 35.6504 62.3496ZM42.5059 64V56.0215H43.7266V58.9414H43.7559C43.9056 58.7266 44.1107 58.5475 44.3711 58.4043C44.638 58.2611 44.918 58.1895 45.2109 58.1895C45.7513 58.1895 46.2005 58.3652 46.5586 58.7168C46.9167 59.0618 47.0957 59.6152 47.0957 60.377V64H45.8652V60.5332C45.8652 59.6738 45.5723 59.2441 44.9863 59.2441C44.6283 59.2441 44.3288 59.3971 44.0879 59.7031C43.847 60.0091 43.7266 60.3672 43.7266 60.7773V64H42.5059ZM49.3223 61.1875C49.3223 61.8385 49.4557 62.3236 49.7227 62.6426C49.9896 62.9616 50.3021 63.1211 50.6602 63.1211C51.0117 63.1211 51.321 62.9616 51.5879 62.6426C51.8548 62.3236 51.9883 61.8385 51.9883 61.1875C51.9883 60.5234 51.8548 60.0352 51.5879 59.7227C51.321 59.4036 51.0117 59.2441 50.6602 59.2441C50.3086 59.2441 49.9961 59.4036 49.7227 59.7227C49.4557 60.0352 49.3223 60.5234 49.3223 61.1875ZM48.0527 61.1875C48.0527 60.3477 48.2741 59.638 48.7168 59.0586C49.1595 58.4792 49.8073 58.1895 50.6602 58.1895C51.5065 58.1895 52.151 58.4792 52.5938 59.0586C53.0365 59.638 53.2578 60.3477 53.2578 61.1875C53.2578 61.4479 53.2318 61.7083 53.1797 61.9688C53.1341 62.2292 53.0495 62.4961 52.9258 62.7695C52.8021 63.0365 52.6458 63.2741 52.457 63.4824C52.2682 63.6842 52.0176 63.8503 51.7051 63.9805C51.3991 64.1107 51.0508 64.1758 50.6602 64.1758C50.276 64.1758 49.9277 64.1139 49.6152 63.9902C49.3092 63.86 49.0586 63.6973 48.8633 63.502C48.6745 63.3001 48.515 63.0658 48.3848 62.7988C48.2611 62.5254 48.1732 62.2585 48.1211 61.998C48.0755 61.7311 48.0527 61.4609 48.0527 61.1875ZM55.5527 61.1777C55.5527 61.7702 55.6634 62.2422 55.8848 62.5938C56.1126 62.9453 56.4284 63.1211 56.832 63.1211C57.2161 63.1211 57.5286 62.9518 57.7695 62.6133C58.0104 62.2682 58.1309 61.7897 58.1309 61.1777C58.1309 60.5853 58.0137 60.1165 57.7793 59.7715C57.5514 59.4199 57.2357 59.2441 56.832 59.2441C56.4349 59.2441 56.1224 59.4232 55.8945 59.7812C55.6667 60.1393 55.5527 60.6048 55.5527 61.1777ZM54.332 66.3047V58.3652H55.5234V59.0977C55.8685 58.4922 56.3633 58.1895 57.0078 58.1895C57.6914 58.1895 58.2578 58.4596 58.707 59C59.1628 59.5339 59.3906 60.2598 59.3906 61.1777C59.3906 61.6921 59.319 62.151 59.1758 62.5547C59.0326 62.9518 58.8405 63.2643 58.5996 63.4922C58.3652 63.7201 58.1113 63.8893 57.8379 64C57.571 64.1172 57.2943 64.1758 57.0078 64.1758C56.6432 64.1758 56.3372 64.0944 56.0898 63.9316C55.849 63.7624 55.6732 63.5671 55.5625 63.3457V66.3047H54.332ZM60.0938 61.1582C60.0938 60.2533 60.3411 59.5339 60.8359 59C61.3372 58.4596 61.9655 58.1895 62.7207 58.1895C63.4629 58.1895 64.0749 58.4596 64.5566 59C65.0384 59.5404 65.2793 60.2435 65.2793 61.1094C65.2793 61.2786 65.2695 61.4447 65.25 61.6074H61.3438C61.3438 62.0371 61.4707 62.4082 61.7246 62.7207C61.985 63.0267 62.3398 63.1797 62.7891 63.1797C63.1016 63.1797 63.375 63.1048 63.6094 62.9551C63.8503 62.7988 64.0326 62.6003 64.1562 62.3594L65.1914 62.7109C65.0091 63.1276 64.7129 63.4759 64.3027 63.7559C63.8926 64.0358 63.3815 64.1758 62.7695 64.1758C61.9818 64.1758 61.3372 63.9023 60.8359 63.3555C60.3411 62.8086 60.0938 62.0762 60.0938 61.1582ZM61.3633 60.7383H64.0195C64.0195 60.3086 63.9056 59.944 63.6777 59.6445C63.4499 59.3385 63.1309 59.1855 62.7207 59.1855C62.3105 59.1855 61.9818 59.3418 61.7344 59.6543C61.4935 59.9603 61.3698 60.3216 61.3633 60.7383ZM65.9629 61.1582C65.9629 60.2533 66.2103 59.5339 66.7051 59C67.2064 58.4596 67.8346 58.1895 68.5898 58.1895C69.332 58.1895 69.944 58.4596 70.4258 59C70.9076 59.5404 71.1484 60.2435 71.1484 61.1094C71.1484 61.2786 71.1387 61.4447 71.1191 61.6074H67.2129C67.2129 62.0371 67.3398 62.4082 67.5938 62.7207C67.8542 63.0267 68.209 63.1797 68.6582 63.1797C68.9707 63.1797 69.2441 63.1048 69.4785 62.9551C69.7194 62.7988 69.9017 62.6003 70.0254 62.3594L71.0605 62.7109C70.8783 63.1276 70.582 63.4759 70.1719 63.7559C69.7617 64.0358 69.2507 64.1758 68.6387 64.1758C67.8509 64.1758 67.2064 63.9023 66.7051 63.3555C66.2103 62.8086 65.9629 62.0762 65.9629 61.1582ZM67.2324 60.7383H69.8887C69.8887 60.3086 69.7747 59.944 69.5469 59.6445C69.319 59.3385 69 59.1855 68.5898 59.1855C68.1797 59.1855 67.8509 59.3418 67.6035 59.6543C67.3626 59.9603 67.2389 60.3216 67.2324 60.7383ZM74.791 64V56.2754H77.7207C78.541 56.2754 79.1562 56.4577 79.5664 56.8223C79.9766 57.1868 80.1816 57.6849 80.1816 58.3164C80.1816 58.694 80.0938 59.0195 79.918 59.293C79.7422 59.5599 79.5111 59.7682 79.2246 59.918C79.5501 60.0352 79.8366 60.2565 80.084 60.582C80.3314 60.901 80.4551 61.2917 80.4551 61.7539C80.4551 62.3984 80.2467 62.9355 79.8301 63.3652C79.4199 63.7884 78.8438 64 78.1016 64H74.791ZM76.0801 62.9062H77.877C78.222 62.9062 78.515 62.8053 78.7559 62.6035C79.0033 62.4017 79.127 62.1185 79.127 61.7539C79.127 61.4089 79.013 61.1257 78.7852 60.9043C78.5638 60.6829 78.2513 60.5723 77.8477 60.5723H76.0801V62.9062ZM76.0801 59.4883H77.5938C77.9648 59.4883 78.2676 59.4004 78.502 59.2246C78.7363 59.0423 78.8535 58.7721 78.8535 58.4141C78.8535 58.0951 78.7526 57.8444 78.5508 57.6621C78.3555 57.4733 78.0495 57.3789 77.6328 57.3789H76.0801V59.4883ZM82.4766 62.418C82.4766 62.6263 82.5579 62.8021 82.7207 62.9453C82.89 63.082 83.1113 63.1504 83.3848 63.1504C83.7754 63.1504 84.1074 63.0202 84.3809 62.7598C84.6608 62.4993 84.8008 62.1576 84.8008 61.7344V61.2168C84.5013 61.2884 84.14 61.3568 83.7168 61.4219C82.89 61.5521 82.4766 61.8841 82.4766 62.418ZM81.2266 62.5254C81.2266 61.4642 82.0143 60.8164 83.5898 60.582C84.1628 60.4974 84.5664 60.4193 84.8008 60.3477V60.0449C84.8008 59.7715 84.7031 59.5566 84.5078 59.4004C84.3125 59.2441 84.0521 59.166 83.7266 59.166C83.1081 59.166 82.5742 59.4199 82.125 59.9277L81.373 59.2832C81.666 58.9382 82.0143 58.6712 82.418 58.4824C82.8281 58.2871 83.2578 58.1895 83.707 58.1895C84.5469 58.1895 85.1458 58.3945 85.5039 58.8047C85.862 59.2083 86.041 59.7747 86.041 60.5039V64H84.8398V63.2969C84.7227 63.5378 84.5176 63.7461 84.2246 63.9219C83.9382 64.0911 83.5996 64.1758 83.209 64.1758C82.5905 64.1758 82.1055 64.0228 81.7539 63.7168C81.4023 63.4108 81.2266 63.0137 81.2266 62.5254ZM88.2773 61.0801C88.2773 61.653 88.388 62.099 88.6094 62.418C88.8372 62.737 89.1367 62.8965 89.5078 62.8965C89.8724 62.8965 90.1654 62.7402 90.3867 62.4277C90.6081 62.1152 90.7188 61.6628 90.7188 61.0703C90.7188 60.4909 90.6081 60.0417 90.3867 59.7227C90.1654 59.4036 89.8757 59.2441 89.5176 59.2441C89.14 59.2441 88.8372 59.4102 88.6094 59.7422C88.388 60.0742 88.2773 60.5202 88.2773 61.0801ZM87.0176 61.0898C87.0176 60.2109 87.2357 59.5078 87.6719 58.9805C88.1081 58.4531 88.668 58.1895 89.3516 58.1895C89.6966 58.1895 89.9863 58.2773 90.2207 58.4531C90.4616 58.6224 90.6309 58.8112 90.7285 59.0195V58.3652H91.959V63.2188C91.959 64.2799 91.7507 65.0645 91.334 65.5723C90.9238 66.0866 90.2891 66.3438 89.4297 66.3438C88.4857 66.3438 87.7533 65.9792 87.2324 65.25L88.0527 64.6836C88.4303 65.1263 88.8958 65.3477 89.4492 65.3477C89.8073 65.3477 90.1035 65.2109 90.3379 64.9375C90.5723 64.6641 90.6992 64.306 90.7188 63.8633C90.7318 63.6029 90.7383 63.388 90.7383 63.2188C90.6146 63.4271 90.429 63.6029 90.1816 63.7461C89.9342 63.8828 89.6706 63.9512 89.3906 63.9512C88.681 63.9512 88.1081 63.6908 87.6719 63.1699C87.2357 62.6426 87.0176 61.9492 87.0176 61.0898Z" fill="#267CCC"/>
<defs>
<linearGradient id="paint0_linear_311_49" x1="42.405" y1="131.484" x2="79.0856" y2="104.623" gradientUnits="userSpaceOnUse">
<stop stop-color="#4080E0"/>
<stop offset="1" stop-color="#32D7B9"/>
</linearGradient>
</defs>
</svg>
