<svg width="309" height="77" viewBox="0 0 309 77" fill="none" xmlns="http://www.w3.org/2000/svg">
<path fill-rule="evenodd" clip-rule="evenodd" d="M10.6875 43.4062L0.5625 46.8516C2.4375 51.3047 5.46094 54.8203 9.63281 57.3984C13.8047 59.9766 18.5391 61.2656 23.8359 61.2656C29.9297 61.2656 34.9922 59.7656 39.0234 56.7656C43.1016 53.7188 45.1406 49.4531 45.1406 43.9688C45.1406 41.5781 44.7188 39.4219 43.875 37.5C43.0312 35.5781 41.8359 33.9844 40.2891 32.7188C38.7422 31.4062 37.125 30.3281 35.4375 29.4844C33.7969 28.6406 31.9219 27.8672 29.8125 27.1641C29.2969 26.9766 28.2422 26.6484 26.6484 26.1797C25.1016 25.7109 24.0234 25.3828 23.4141 25.1953C22.8516 24.9609 21.9609 24.6094 20.7422 24.1406C19.5703 23.6719 18.7266 23.25 18.2109 22.875L16.4531 21.4688C15.7969 20.9062 15.3516 20.2969 15.1172 19.6406C14.8828 18.9844 14.7656 18.2578 14.7656 17.4609C14.7656 15.5859 15.5391 14.0859 17.0859 12.9609C18.6328 11.7891 20.7422 11.2031 23.4141 11.2031C28.0547 11.2031 31.9219 13.3359 35.0156 17.6016L44.8594 14.3672C43.125 10.4766 40.4297 7.3125 36.7734 4.875C33.1641 2.39062 28.7344 1.14844 23.4844 1.14844C17.3906 1.14844 12.3984 2.67188 8.50781 5.71875C4.61719 8.71875 2.67188 12.6562 2.67188 17.5312C2.67188 23.4844 5.46094 27.9844 11.0391 31.0312C12.9141 32.0156 16.6172 33.4219 22.1484 35.25C25.7109 36.4688 28.4062 37.7578 30.2344 39.1172C32.0625 40.4297 32.9766 42.2109 32.9766 44.4609C32.9766 46.4297 32.1562 48.0703 30.5156 49.3828C28.9219 50.6484 26.7891 51.2812 24.1172 51.2812C21.3984 51.2812 18.7734 50.5312 16.2422 49.0312C13.7578 47.5312 11.9062 45.6562 10.6875 43.4062ZM51.6797 0.65625V60H62.7891V36.2344C62.7891 33.4688 63.5156 31.0781 64.9688 29.0625C66.4688 27 68.3672 25.9688 70.6641 25.9688C74.1328 25.9688 75.8672 28.6875 75.8672 34.125V60H87.1172V32.8594C87.1172 29.8594 86.6953 27.2578 85.8516 25.0547C85.0078 22.8047 83.8594 21.0938 82.4062 19.9219C81 18.7031 79.4766 17.8125 77.8359 17.25C76.2422 16.6875 74.5312 16.4062 72.7031 16.4062C68.7656 16.4062 65.5312 17.7422 63 20.4141H62.7891V0.65625H51.6797ZM107.227 48.75C105.492 46.7812 104.625 43.4766 104.625 38.8359C104.625 34.1484 105.492 30.8438 107.227 28.9219C108.961 26.9531 110.883 25.9688 112.992 25.9688C113.883 25.9688 114.75 26.1562 115.594 26.5312C116.484 26.9062 117.375 27.5391 118.266 28.4297C119.203 29.3203 119.93 30.6562 120.445 32.4375C121.008 34.2188 121.289 36.3516 121.289 38.8359C121.289 41.2734 121.008 43.4062 120.445 45.2344C119.883 47.0156 119.156 48.3516 118.266 49.2422C117.375 50.0859 116.484 50.7188 115.594 51.1406C114.75 51.5156 113.883 51.7031 112.992 51.7031C110.883 51.7031 108.961 50.7188 107.227 48.75ZM94.2188 30.6094C93.4688 33.1875 93.0938 35.9297 93.0938 38.8359C93.0938 40.8516 93.2578 42.8203 93.5859 44.7422C93.9609 46.6641 94.5938 48.6562 95.4844 50.7188C96.4219 52.7344 97.6172 54.5156 99.0703 56.0625C100.523 57.5625 102.445 58.8047 104.836 59.7891C107.227 60.7734 109.945 61.2656 112.992 61.2656C116.086 61.2656 118.828 60.75 121.219 59.7188C123.656 58.6875 125.578 57.3984 126.984 55.8516C128.391 54.2578 129.539 52.4297 130.43 50.3672C131.367 48.2578 132 46.2891 132.328 44.4609C132.656 42.5859 132.82 40.7109 132.82 38.8359C132.82 35.9297 132.445 33.1875 131.695 30.6094C130.945 27.9844 129.797 25.5938 128.25 23.4375C126.75 21.2812 124.688 19.5703 122.062 18.3047C119.438 17.0391 116.414 16.4062 112.992 16.4062C109.57 16.4062 106.523 17.0391 103.852 18.3047C101.227 19.5703 99.1406 21.2812 97.5938 23.4375C96.0938 25.5938 94.9688 27.9844 94.2188 30.6094ZM152.859 48.2578C151.453 45.9141 150.75 42.75 150.75 38.7656C150.75 34.9219 151.43 31.8281 152.789 29.4844C154.195 27.1406 156.234 25.9688 158.906 25.9688C161.484 25.9688 163.477 27.0938 164.883 29.3438C166.336 31.5938 167.062 34.7344 167.062 38.7656C167.062 42.9375 166.312 46.1484 164.812 48.3984C163.359 50.6016 161.391 51.7031 158.906 51.7031C156.328 51.7031 154.312 50.5547 152.859 48.2578ZM139.711 17.6719V76.5938H150.891V56.4844C151.641 57.7031 152.812 58.8047 154.406 59.7891C156 60.7734 158.039 61.2656 160.523 61.2656C162.633 61.2656 164.695 60.8438 166.711 60C168.727 59.2031 170.648 57.9609 172.477 56.2734C174.305 54.5859 175.781 52.2422 176.906 49.2422C178.031 46.1953 178.594 42.7031 178.594 38.7656C178.594 31.8281 176.883 26.3672 173.461 22.3828C170.039 18.3984 165.727 16.4062 160.523 16.4062C156.398 16.4062 153.047 18.2109 150.469 21.8203V17.6719H139.711ZM220.788 26.9689C219.776 26.257 218.444 26.0352 217.591 26.0863C217.522 26.0905 217.452 26.0926 217.382 26.0926C211.823 26.0926 208.687 28.3303 206.823 30.9183C204.831 33.6848 204.133 37.1098 204.133 39.3411C204.133 39.8698 204.743 40.1409 205.183 39.8485C205.236 39.8137 205.288 39.7796 205.339 39.7462C205.365 39.7293 205.391 39.7126 205.417 39.696C207.937 38.0803 210.769 37.5328 213.034 37.2093L214.236 37.0375C214.441 37.0083 214.569 36.9875 214.679 36.965C215.454 36.8058 217.69 36.265 219.647 35.1338C221.643 33.9798 222.553 32.7203 222.553 31.264C222.553 28.6509 221.602 27.5413 220.788 26.9689ZM207.493 48.5944C207.299 48.3516 207.197 48.1668 207.143 48.045C207.079 47.8979 207.076 47.8224 207.075 47.798C207.075 47.7677 207.078 47.5471 207.428 47.097C207.788 46.6347 208.384 46.109 209.195 45.5889C210.378 44.8307 211.934 44.4374 214.024 44.1389L215.226 43.9672C215.461 43.9336 215.761 43.8888 216.087 43.8219C217.125 43.6087 220.225 42.8848 223.15 41.1943C226.035 39.5268 229.553 36.4077 229.553 31.264C229.553 26.524 227.614 23.2113 224.815 21.2429C222.263 19.4483 219.322 18.9936 217.288 19.0926H187.58C185.647 19.0926 184.08 20.6596 184.08 22.5926C184.08 24.5256 185.647 26.0926 187.58 26.0926H200.777C201.149 26.0926 201.36 26.5259 201.143 26.8282C198.11 31.0403 197.133 35.9896 197.133 39.3411C197.133 44.4145 199.502 54.1287 208.914 58.0201C211.36 59.0312 214.177 59.5896 217.382 59.5896C225.297 59.5896 233.222 54.892 238.861 50.665C241.768 48.4861 244.25 46.2917 246.05 44.5981C246.952 43.7494 247.687 43.0223 248.223 42.4811C248.492 42.2104 248.709 41.9869 248.871 41.8198L249.067 41.6172L249.129 41.5528L249.138 41.5439L249.139 41.5431C249.19 41.4918 249.277 41.4009 249.397 41.2747L249.397 41.2746C249.927 40.7184 251.109 39.4769 252.799 37.9215C253.837 36.9668 255.531 37.9295 255.531 39.3396C255.531 44.4126 257.899 54.1261 267.311 58.0172C269.757 59.0282 272.573 59.5866 275.778 59.5866C283.661 59.5866 291.675 54.9876 297.413 50.8337C303.043 46.7581 307.163 42.5991 307.865 41.8911L307.865 41.8909L307.941 41.8145C309.308 40.4477 309.308 38.2316 307.941 36.8647C306.574 35.4979 304.358 35.4979 302.991 36.8647L302.92 36.9365C302.268 37.5948 298.474 41.4242 293.308 45.1635C287.742 49.1927 281.292 52.5866 275.778 52.5866C273.46 52.5866 271.6 52.1959 270.105 51.597C268.289 50.6664 267.136 49.8387 266.43 49.1709C266.242 48.983 266.062 48.7898 265.89 48.5918C265.697 48.3491 265.594 48.1643 265.541 48.0427C265.476 47.8956 265.473 47.8201 265.473 47.7957C265.472 47.7655 265.475 47.5451 265.826 47.0951C266.186 46.6329 266.781 46.1072 267.592 45.5873C268.775 44.829 270.331 44.4358 272.421 44.1373L273.622 43.9656C273.857 43.932 274.158 43.8872 274.483 43.8203C275.522 43.6071 278.621 42.8833 281.546 41.1929C284.43 39.5255 287.949 36.4067 287.949 31.2632C287.949 26.5236 286.009 23.2111 283.21 21.2428C280.657 19.4473 277.715 18.9931 275.681 19.0928C272.686 19.1034 270.074 19.6032 267.813 20.4631C262.603 22.1087 257.879 24.9901 254.164 27.7268C251.285 29.8471 248.873 31.9837 247.135 33.6353C246.264 34.4631 245.558 35.1727 245.043 35.7016C244.786 35.9661 244.578 36.1845 244.424 36.3466L244.24 36.5404L244.194 36.5876L244.188 36.5948C244.149 36.6339 244.084 36.7009 243.994 36.7934L243.993 36.7944L243.993 36.7945C243.064 37.7541 239.497 41.4405 234.663 45.0637C229.201 49.1572 222.865 52.5896 217.382 52.5896C215.063 52.5896 213.204 52.1989 211.709 51.5999C209.892 50.6692 208.739 49.8414 208.032 49.1735C207.845 48.9856 207.665 48.7923 207.493 48.5944ZM265.221 30.9178C266.327 29.3809 267.883 27.9675 270.128 27.0731C272.15 26.4525 274.193 26.0926 276.206 26.0926C276.287 26.0926 276.368 26.0898 276.447 26.0844C277.273 26.1222 278.339 26.375 279.184 26.9688C279.998 27.5411 280.949 28.6505 280.949 31.2632C280.949 32.7193 280.039 33.9785 278.043 35.1325C276.086 36.2634 273.851 36.8042 273.075 36.9634C272.966 36.9859 272.837 37.0067 272.632 37.0359L271.431 37.2076C269.166 37.5312 266.334 38.0786 263.814 39.6945C263.737 39.7436 263.659 39.7944 263.58 39.8468C263.14 40.1389 262.531 39.868 262.531 39.3396C262.531 37.1085 263.229 33.684 265.221 30.9178Z" fill="url(#paint0_linear_302_25)"/>
<defs>
<linearGradient id="paint0_linear_302_25" x1="166" y1="37" x2="316.166" y2="-33.5745" gradientUnits="userSpaceOnUse">
<stop stop-color="#4080E0"/>
<stop offset="1" stop-color="#32D7B9"/>
</linearGradient>
</defs>
</svg>
